<mxfile host="app.diagrams.net" modified="2024-05-17T08:42:42.197Z" agent="Mozilla/5.0 (Windows NT 10.0; Win64; x64) AppleWebKit/537.36 (KHTML, like Gecko) Chrome/124.0.0.0 Safari/537.36" etag="gwrnR5QSzLnNUXkL45LN" version="24.4.3" type="device" pages="6">
  <diagram name="ДД Просматривать содержимое классного журнала" id="GhDA5JJ8EpGgMBsGiKvQ">
    <mxGraphModel dx="1909" dy="1202" grid="1" gridSize="10" guides="1" tooltips="1" connect="1" arrows="1" fold="1" page="1" pageScale="1" pageWidth="827" pageHeight="1169" math="0" shadow="0">
      <root>
        <mxCell id="0" />
        <mxCell id="1" parent="0" />
        <mxCell id="xFsw0_pARV41h1hgjw1y-2" value="" style="ellipse;html=1;shape=startState;fillColor=#000000;strokeColor=#ff0000;" parent="1" vertex="1">
          <mxGeometry x="240" y="70" width="30" height="30" as="geometry" />
        </mxCell>
        <mxCell id="xFsw0_pARV41h1hgjw1y-3" value="" style="edgeStyle=orthogonalEdgeStyle;html=1;verticalAlign=bottom;endArrow=open;endSize=8;strokeColor=#ff0000;rounded=0;" parent="1" source="xFsw0_pARV41h1hgjw1y-2" edge="1">
          <mxGeometry relative="1" as="geometry">
            <mxPoint x="255" y="160" as="targetPoint" />
          </mxGeometry>
        </mxCell>
        <mxCell id="xFsw0_pARV41h1hgjw1y-4" value="Отобразить перечень предметов" style="rounded=1;whiteSpace=wrap;html=1;arcSize=40;fontColor=#000000;fillColor=#ffffc0;strokeColor=#ff0000;" parent="1" vertex="1">
          <mxGeometry x="192.5" y="160" width="125" height="50" as="geometry" />
        </mxCell>
        <mxCell id="xFsw0_pARV41h1hgjw1y-5" value="" style="edgeStyle=orthogonalEdgeStyle;html=1;verticalAlign=bottom;endArrow=open;endSize=8;strokeColor=#ff0000;rounded=0;" parent="1" source="xFsw0_pARV41h1hgjw1y-4" edge="1">
          <mxGeometry relative="1" as="geometry">
            <mxPoint x="255" y="260" as="targetPoint" />
          </mxGeometry>
        </mxCell>
        <mxCell id="xFsw0_pARV41h1hgjw1y-6" value="Получить название нужного предмета" style="rounded=1;whiteSpace=wrap;html=1;arcSize=40;fontColor=#000000;fillColor=#ffffc0;strokeColor=#ff0000;" parent="1" vertex="1">
          <mxGeometry x="195" y="260" width="120" height="40" as="geometry" />
        </mxCell>
        <mxCell id="xFsw0_pARV41h1hgjw1y-7" value="" style="edgeStyle=orthogonalEdgeStyle;html=1;verticalAlign=bottom;endArrow=open;endSize=8;strokeColor=#ff0000;rounded=0;" parent="1" source="xFsw0_pARV41h1hgjw1y-6" edge="1">
          <mxGeometry relative="1" as="geometry">
            <mxPoint x="255" y="360" as="targetPoint" />
          </mxGeometry>
        </mxCell>
        <mxCell id="xFsw0_pARV41h1hgjw1y-8" value="&lt;font style=&quot;font-size: 13px;&quot; face=&quot;Helvetica&quot;&gt;Отобразить&lt;br&gt;информацию об успеваемости&amp;nbsp; ученика по выбранному&lt;br&gt;предмету&lt;/font&gt;" style="rounded=1;whiteSpace=wrap;html=1;arcSize=40;fontColor=#000000;fillColor=#ffffc0;strokeColor=#ff0000;" parent="1" vertex="1">
          <mxGeometry x="166" y="360" width="178" height="90" as="geometry" />
        </mxCell>
        <mxCell id="xFsw0_pARV41h1hgjw1y-9" value="" style="edgeStyle=orthogonalEdgeStyle;html=1;verticalAlign=bottom;endArrow=open;endSize=8;strokeColor=#ff0000;rounded=0;" parent="1" source="xFsw0_pARV41h1hgjw1y-8" edge="1">
          <mxGeometry relative="1" as="geometry">
            <mxPoint x="255" y="500" as="targetPoint" />
            <Array as="points">
              <mxPoint x="255" y="460" />
            </Array>
          </mxGeometry>
        </mxCell>
        <mxCell id="xFsw0_pARV41h1hgjw1y-11" value="&lt;span style=&quot;font-size: 13px;&quot;&gt;&lt;font style=&quot;font-size: 13px;&quot; face=&quot;Helvetica&quot;&gt;Отобразить&lt;span style=&quot;letter-spacing: -0.15pt;&quot;&gt; &lt;/span&gt;информацию о посещаемости ученика по&lt;br/&gt;выбранному предмету&lt;/font&gt;&lt;/span&gt;" style="rounded=1;whiteSpace=wrap;html=1;arcSize=40;fontColor=#000000;fillColor=#ffffc0;strokeColor=#ff0000;" parent="1" vertex="1">
          <mxGeometry x="166" y="500" width="178" height="90" as="geometry" />
        </mxCell>
        <mxCell id="xFsw0_pARV41h1hgjw1y-12" value="" style="edgeStyle=orthogonalEdgeStyle;html=1;verticalAlign=bottom;endArrow=open;endSize=8;strokeColor=#ff0000;rounded=0;" parent="1" source="xFsw0_pARV41h1hgjw1y-11" edge="1">
          <mxGeometry relative="1" as="geometry">
            <mxPoint x="255" y="640" as="targetPoint" />
            <Array as="points">
              <mxPoint x="255" y="600" />
            </Array>
          </mxGeometry>
        </mxCell>
        <mxCell id="xFsw0_pARV41h1hgjw1y-13" value="Получить информацию о действии (запрос)" style="rounded=1;whiteSpace=wrap;html=1;arcSize=40;fontColor=#000000;fillColor=#ffffc0;strokeColor=#ff0000;" parent="1" vertex="1">
          <mxGeometry x="198" y="640" width="122" height="50" as="geometry" />
        </mxCell>
        <mxCell id="xFsw0_pARV41h1hgjw1y-14" value="" style="edgeStyle=orthogonalEdgeStyle;html=1;verticalAlign=bottom;endArrow=open;endSize=8;strokeColor=#ff0000;rounded=0;" parent="1" source="xFsw0_pARV41h1hgjw1y-13" edge="1">
          <mxGeometry relative="1" as="geometry">
            <mxPoint x="258" y="740" as="targetPoint" />
          </mxGeometry>
        </mxCell>
        <mxCell id="xFsw0_pARV41h1hgjw1y-15" value="" style="rhombus;whiteSpace=wrap;html=1;fontColor=#000000;fillColor=#ffffc0;strokeColor=#ff0000;" parent="1" vertex="1">
          <mxGeometry x="220" y="740" width="80" height="40" as="geometry" />
        </mxCell>
        <mxCell id="xFsw0_pARV41h1hgjw1y-16" value="[Вернуться к списку &lt;br&gt;предметов]" style="edgeStyle=orthogonalEdgeStyle;html=1;align=left;verticalAlign=bottom;endArrow=open;endSize=8;strokeColor=#ff0000;rounded=0;entryX=1;entryY=0.5;entryDx=0;entryDy=0;" parent="1" source="xFsw0_pARV41h1hgjw1y-15" target="xFsw0_pARV41h1hgjw1y-4" edge="1">
          <mxGeometry x="-1" relative="1" as="geometry">
            <mxPoint x="400" y="760" as="targetPoint" />
            <Array as="points">
              <mxPoint x="490" y="760" />
              <mxPoint x="490" y="185" />
            </Array>
          </mxGeometry>
        </mxCell>
        <mxCell id="xFsw0_pARV41h1hgjw1y-17" value="[Остаться на&lt;br&gt;странице]" style="edgeStyle=orthogonalEdgeStyle;html=1;align=left;verticalAlign=top;endArrow=open;endSize=8;strokeColor=#ff0000;rounded=0;" parent="1" source="xFsw0_pARV41h1hgjw1y-15" edge="1">
          <mxGeometry x="-0.6694" y="20" relative="1" as="geometry">
            <mxPoint x="260" y="840" as="targetPoint" />
            <mxPoint as="offset" />
          </mxGeometry>
        </mxCell>
        <mxCell id="xFsw0_pARV41h1hgjw1y-20" value="" style="ellipse;html=1;shape=endState;fillColor=#000000;strokeColor=#ff0000;" parent="1" vertex="1">
          <mxGeometry x="244" y="840" width="30" height="30" as="geometry" />
        </mxCell>
      </root>
    </mxGraphModel>
  </diagram>
  <diagram id="ozHT0kNgbM_j_uiXv8dV" name="ДП Просматривать содержимое классного журнала">
    <mxGraphModel dx="1434" dy="780" grid="1" gridSize="10" guides="1" tooltips="1" connect="1" arrows="1" fold="1" page="1" pageScale="1" pageWidth="827" pageHeight="1169" math="0" shadow="0">
      <root>
        <mxCell id="0" />
        <mxCell id="1" parent="0" />
        <mxCell id="-aEBHtSDJdG5K7ZYC6EL-1" value="" style="shape=umlLifeline;perimeter=lifelinePerimeter;whiteSpace=wrap;html=1;container=1;dropTarget=0;collapsible=0;recursiveResize=0;outlineConnect=0;portConstraint=eastwest;newEdgeStyle={&quot;curved&quot;:0,&quot;rounded&quot;:0};participant=umlActor;" parent="1" vertex="1">
          <mxGeometry x="100" y="50" width="20" height="660" as="geometry" />
        </mxCell>
        <mxCell id="-aEBHtSDJdG5K7ZYC6EL-4" value="" style="html=1;points=[[0,0,0,0,5],[0,1,0,0,-5],[1,0,0,0,5],[1,1,0,0,-5]];perimeter=orthogonalPerimeter;outlineConnect=0;targetShapes=umlLifeline;portConstraint=eastwest;newEdgeStyle={&quot;curved&quot;:0,&quot;rounded&quot;:0};" parent="-aEBHtSDJdG5K7ZYC6EL-1" vertex="1">
          <mxGeometry x="5" y="70" width="10" height="430" as="geometry" />
        </mxCell>
        <mxCell id="-aEBHtSDJdG5K7ZYC6EL-9" value="" style="html=1;points=[[0,0,0,0,5],[0,1,0,0,-5],[1,0,0,0,5],[1,1,0,0,-5]];perimeter=orthogonalPerimeter;outlineConnect=0;targetShapes=umlLifeline;portConstraint=eastwest;newEdgeStyle={&quot;curved&quot;:0,&quot;rounded&quot;:0};" parent="-aEBHtSDJdG5K7ZYC6EL-1" vertex="1">
          <mxGeometry x="5" y="130" width="10" height="40" as="geometry" />
        </mxCell>
        <mxCell id="-aEBHtSDJdG5K7ZYC6EL-10" value="ПолучитьНазваниеПредмета():НазваниеПредмета" style="html=1;align=left;spacingLeft=2;endArrow=block;rounded=0;edgeStyle=orthogonalEdgeStyle;curved=0;rounded=0;" parent="-aEBHtSDJdG5K7ZYC6EL-1" target="-aEBHtSDJdG5K7ZYC6EL-9" edge="1">
          <mxGeometry relative="1" as="geometry">
            <mxPoint x="10" y="110" as="sourcePoint" />
            <Array as="points">
              <mxPoint x="40" y="140" />
            </Array>
          </mxGeometry>
        </mxCell>
        <mxCell id="yJdR0REu-SGnylPo3Y4m-10" value="" style="html=1;points=[[0,0,0,0,5],[0,1,0,0,-5],[1,0,0,0,5],[1,1,0,0,-5]];perimeter=orthogonalPerimeter;outlineConnect=0;targetShapes=umlLifeline;portConstraint=eastwest;newEdgeStyle={&quot;curved&quot;:0,&quot;rounded&quot;:0};" parent="-aEBHtSDJdG5K7ZYC6EL-1" vertex="1">
          <mxGeometry x="6" y="420" width="10" height="40" as="geometry" />
        </mxCell>
        <mxCell id="yJdR0REu-SGnylPo3Y4m-11" value="ОтобразитьРезультаты(Результат)" style="html=1;align=left;spacingLeft=2;endArrow=block;rounded=0;edgeStyle=orthogonalEdgeStyle;curved=0;rounded=0;" parent="-aEBHtSDJdG5K7ZYC6EL-1" target="yJdR0REu-SGnylPo3Y4m-10" edge="1">
          <mxGeometry relative="1" as="geometry">
            <mxPoint x="11" y="400" as="sourcePoint" />
            <Array as="points">
              <mxPoint x="41" y="430" />
            </Array>
          </mxGeometry>
        </mxCell>
        <mxCell id="-aEBHtSDJdG5K7ZYC6EL-3" value="Учащийся" style="text;html=1;align=center;verticalAlign=middle;resizable=0;points=[];autosize=1;strokeColor=none;fillColor=none;" parent="1" vertex="1">
          <mxGeometry x="70" y="20" width="80" height="30" as="geometry" />
        </mxCell>
        <mxCell id="-aEBHtSDJdG5K7ZYC6EL-5" value=":Предмет" style="shape=umlLifeline;perimeter=lifelinePerimeter;whiteSpace=wrap;html=1;container=1;dropTarget=0;collapsible=0;recursiveResize=0;outlineConnect=0;portConstraint=eastwest;newEdgeStyle={&quot;curved&quot;:0,&quot;rounded&quot;:0};" parent="1" vertex="1">
          <mxGeometry x="414" y="50" width="100" height="300" as="geometry" />
        </mxCell>
        <mxCell id="-aEBHtSDJdG5K7ZYC6EL-6" value="" style="html=1;points=[[0,0,0,0,5],[0,1,0,0,-5],[1,0,0,0,5],[1,1,0,0,-5]];perimeter=orthogonalPerimeter;outlineConnect=0;targetShapes=umlLifeline;portConstraint=eastwest;newEdgeStyle={&quot;curved&quot;:0,&quot;rounded&quot;:0};" parent="-aEBHtSDJdG5K7ZYC6EL-5" vertex="1">
          <mxGeometry x="45" y="70" width="10" height="80" as="geometry" />
        </mxCell>
        <mxCell id="-aEBHtSDJdG5K7ZYC6EL-7" style="edgeStyle=orthogonalEdgeStyle;rounded=0;orthogonalLoop=1;jettySize=auto;html=1;curved=0;" parent="1" source="-aEBHtSDJdG5K7ZYC6EL-4" target="-aEBHtSDJdG5K7ZYC6EL-6" edge="1">
          <mxGeometry relative="1" as="geometry">
            <Array as="points">
              <mxPoint x="160" y="150" />
              <mxPoint x="160" y="150" />
            </Array>
          </mxGeometry>
        </mxCell>
        <mxCell id="-aEBHtSDJdG5K7ZYC6EL-8" value="ПолучитьПеречньПредметов():Предмет" style="edgeLabel;html=1;align=center;verticalAlign=middle;resizable=0;points=[];" parent="-aEBHtSDJdG5K7ZYC6EL-7" vertex="1" connectable="0">
          <mxGeometry x="-0.2632" y="3" relative="1" as="geometry">
            <mxPoint x="15" y="-7" as="offset" />
          </mxGeometry>
        </mxCell>
        <mxCell id="-aEBHtSDJdG5K7ZYC6EL-11" value=":Успеваемость" style="shape=umlLifeline;perimeter=lifelinePerimeter;whiteSpace=wrap;html=1;container=1;dropTarget=0;collapsible=0;recursiveResize=0;outlineConnect=0;portConstraint=eastwest;newEdgeStyle={&quot;curved&quot;:0,&quot;rounded&quot;:0};" parent="1" vertex="1">
          <mxGeometry x="590" y="50" width="100" height="390" as="geometry" />
        </mxCell>
        <mxCell id="yJdR0REu-SGnylPo3Y4m-1" value="" style="html=1;points=[[0,0,0,0,5],[0,1,0,0,-5],[1,0,0,0,5],[1,1,0,0,-5]];perimeter=orthogonalPerimeter;outlineConnect=0;targetShapes=umlLifeline;portConstraint=eastwest;newEdgeStyle={&quot;curved&quot;:0,&quot;rounded&quot;:0};" parent="-aEBHtSDJdG5K7ZYC6EL-11" vertex="1">
          <mxGeometry x="45" y="190" width="10" height="80" as="geometry" />
        </mxCell>
        <mxCell id="yJdR0REu-SGnylPo3Y4m-2" style="edgeStyle=orthogonalEdgeStyle;rounded=0;orthogonalLoop=1;jettySize=auto;html=1;curved=0;" parent="1" source="-aEBHtSDJdG5K7ZYC6EL-4" target="-aEBHtSDJdG5K7ZYC6EL-11" edge="1">
          <mxGeometry relative="1" as="geometry">
            <Array as="points">
              <mxPoint x="250" y="280" />
              <mxPoint x="250" y="280" />
            </Array>
          </mxGeometry>
        </mxCell>
        <mxCell id="yJdR0REu-SGnylPo3Y4m-3" value="ПолучитьДанныеОбУспеваемости():Успеваемость" style="edgeLabel;html=1;align=center;verticalAlign=middle;resizable=0;points=[];" parent="yJdR0REu-SGnylPo3Y4m-2" vertex="1" connectable="0">
          <mxGeometry x="-0.3899" relative="1" as="geometry">
            <mxPoint x="-20" y="-10" as="offset" />
          </mxGeometry>
        </mxCell>
        <mxCell id="yJdR0REu-SGnylPo3Y4m-4" value=":Посещаемость" style="shape=umlLifeline;perimeter=lifelinePerimeter;whiteSpace=wrap;html=1;container=1;dropTarget=0;collapsible=0;recursiveResize=0;outlineConnect=0;portConstraint=eastwest;newEdgeStyle={&quot;curved&quot;:0,&quot;rounded&quot;:0};" parent="1" vertex="1">
          <mxGeometry x="770" y="50" width="100" height="640" as="geometry" />
        </mxCell>
        <mxCell id="yJdR0REu-SGnylPo3Y4m-5" value="" style="html=1;points=[[0,0,0,0,5],[0,1,0,0,-5],[1,0,0,0,5],[1,1,0,0,-5]];perimeter=orthogonalPerimeter;outlineConnect=0;targetShapes=umlLifeline;portConstraint=eastwest;newEdgeStyle={&quot;curved&quot;:0,&quot;rounded&quot;:0};" parent="yJdR0REu-SGnylPo3Y4m-4" vertex="1">
          <mxGeometry x="45" y="300" width="10" height="80" as="geometry" />
        </mxCell>
        <mxCell id="yJdR0REu-SGnylPo3Y4m-6" style="edgeStyle=orthogonalEdgeStyle;rounded=0;orthogonalLoop=1;jettySize=auto;html=1;curved=0;" parent="1" source="-aEBHtSDJdG5K7ZYC6EL-4" target="yJdR0REu-SGnylPo3Y4m-4" edge="1">
          <mxGeometry relative="1" as="geometry">
            <Array as="points">
              <mxPoint x="290" y="380" />
              <mxPoint x="290" y="380" />
            </Array>
          </mxGeometry>
        </mxCell>
        <mxCell id="yJdR0REu-SGnylPo3Y4m-7" value="&lt;span style=&quot;font-size: 11px; background-color: rgb(255, 255, 255);&quot;&gt;ПолучитьДанныеОПосещаемостии():Посещаемость&lt;/span&gt;" style="text;html=1;align=center;verticalAlign=middle;resizable=0;points=[];autosize=1;strokeColor=none;fillColor=none;" parent="1" vertex="1">
          <mxGeometry x="155" y="328" width="290" height="30" as="geometry" />
        </mxCell>
      </root>
    </mxGraphModel>
  </diagram>
  <diagram id="UU9LcetnBbPYJ6xcRy1N" name="ДП Работать с журналом учета преподавателей">
    <mxGraphModel dx="1434" dy="780" grid="1" gridSize="10" guides="1" tooltips="1" connect="1" arrows="1" fold="1" page="1" pageScale="1" pageWidth="827" pageHeight="1169" math="0" shadow="0">
      <root>
        <mxCell id="0" />
        <mxCell id="1" parent="0" />
        <mxCell id="kTUTBUxoFP5jON_hpG-B-2" value="" style="shape=umlLifeline;perimeter=lifelinePerimeter;whiteSpace=wrap;html=1;container=1;dropTarget=0;collapsible=0;recursiveResize=0;outlineConnect=0;portConstraint=eastwest;newEdgeStyle={&quot;curved&quot;:0,&quot;rounded&quot;:0};participant=umlActor;" parent="1" vertex="1">
          <mxGeometry x="80" y="100" width="20" height="600" as="geometry" />
        </mxCell>
        <mxCell id="2SuWnSA99DPPpRbEErow-1" value="" style="html=1;points=[[0,0,0,0,5],[0,1,0,0,-5],[1,0,0,0,5],[1,1,0,0,-5]];perimeter=orthogonalPerimeter;outlineConnect=0;targetShapes=umlLifeline;portConstraint=eastwest;newEdgeStyle={&quot;curved&quot;:0,&quot;rounded&quot;:0};" parent="kTUTBUxoFP5jON_hpG-B-2" vertex="1">
          <mxGeometry x="5" y="60" width="10" height="330" as="geometry" />
        </mxCell>
        <mxCell id="wPAeT3K_qcjkXJFKxchH-1" value="" style="html=1;points=[[0,0,0,0,5],[0,1,0,0,-5],[1,0,0,0,5],[1,1,0,0,-5]];perimeter=orthogonalPerimeter;outlineConnect=0;targetShapes=umlLifeline;portConstraint=eastwest;newEdgeStyle={&quot;curved&quot;:0,&quot;rounded&quot;:0};" parent="kTUTBUxoFP5jON_hpG-B-2" vertex="1">
          <mxGeometry x="5" y="120" width="10" height="40" as="geometry" />
        </mxCell>
        <mxCell id="wPAeT3K_qcjkXJFKxchH-2" value="ПолучитьФИОПреподавателя():ФИОПреподавателя" style="html=1;align=left;spacingLeft=2;endArrow=block;rounded=0;edgeStyle=orthogonalEdgeStyle;curved=0;rounded=0;" parent="kTUTBUxoFP5jON_hpG-B-2" target="wPAeT3K_qcjkXJFKxchH-1" edge="1">
          <mxGeometry x="0.0118" relative="1" as="geometry">
            <mxPoint x="10" y="100" as="sourcePoint" />
            <Array as="points">
              <mxPoint x="40" y="130" />
            </Array>
            <mxPoint as="offset" />
          </mxGeometry>
        </mxCell>
        <mxCell id="e9LcL4o1iRo2LlaVkWCO-4" value="" style="html=1;points=[[0,0,0,0,5],[0,1,0,0,-5],[1,0,0,0,5],[1,1,0,0,-5]];perimeter=orthogonalPerimeter;outlineConnect=0;targetShapes=umlLifeline;portConstraint=eastwest;newEdgeStyle={&quot;curved&quot;:0,&quot;rounded&quot;:0};" parent="kTUTBUxoFP5jON_hpG-B-2" vertex="1">
          <mxGeometry x="5" y="200" width="10" height="40" as="geometry" />
        </mxCell>
        <mxCell id="e9LcL4o1iRo2LlaVkWCO-5" value="ПолучитьЛичноеДелоПреподавателя():ЛДПреподавателя" style="html=1;align=left;spacingLeft=2;endArrow=block;rounded=0;edgeStyle=orthogonalEdgeStyle;curved=0;rounded=0;" parent="kTUTBUxoFP5jON_hpG-B-2" target="e9LcL4o1iRo2LlaVkWCO-4" edge="1">
          <mxGeometry relative="1" as="geometry">
            <mxPoint x="10" y="180" as="sourcePoint" />
            <Array as="points">
              <mxPoint x="40" y="210" />
            </Array>
          </mxGeometry>
        </mxCell>
        <mxCell id="e9LcL4o1iRo2LlaVkWCO-9" value="" style="html=1;points=[[0,0,0,0,5],[0,1,0,0,-5],[1,0,0,0,5],[1,1,0,0,-5]];perimeter=orthogonalPerimeter;outlineConnect=0;targetShapes=umlLifeline;portConstraint=eastwest;newEdgeStyle={&quot;curved&quot;:0,&quot;rounded&quot;:0};" parent="kTUTBUxoFP5jON_hpG-B-2" vertex="1">
          <mxGeometry x="5" y="300" width="10" height="40" as="geometry" />
        </mxCell>
        <mxCell id="e9LcL4o1iRo2LlaVkWCO-10" value="ОткрытьФорму(Преподаватель)" style="html=1;align=left;spacingLeft=2;endArrow=block;rounded=0;edgeStyle=orthogonalEdgeStyle;curved=0;rounded=0;" parent="kTUTBUxoFP5jON_hpG-B-2" target="e9LcL4o1iRo2LlaVkWCO-9" edge="1">
          <mxGeometry relative="1" as="geometry">
            <mxPoint x="10" y="280" as="sourcePoint" />
            <Array as="points">
              <mxPoint x="40" y="310" />
            </Array>
          </mxGeometry>
        </mxCell>
        <mxCell id="kTUTBUxoFP5jON_hpG-B-3" value="Администрация школы" style="text;html=1;align=center;verticalAlign=middle;resizable=0;points=[];autosize=1;strokeColor=none;fillColor=none;" parent="1" vertex="1">
          <mxGeometry x="15" y="70" width="150" height="30" as="geometry" />
        </mxCell>
        <mxCell id="2SuWnSA99DPPpRbEErow-2" value=":Преподаватель" style="shape=umlLifeline;perimeter=lifelinePerimeter;whiteSpace=wrap;html=1;container=1;dropTarget=0;collapsible=0;recursiveResize=0;outlineConnect=0;portConstraint=eastwest;newEdgeStyle={&quot;curved&quot;:0,&quot;rounded&quot;:0};" parent="1" vertex="1">
          <mxGeometry x="500" y="80" width="100" height="730" as="geometry" />
        </mxCell>
        <mxCell id="0DaUec6cCpMsL1g1Fyv9-1" value="" style="html=1;points=[[0,0,0,0,5],[0,1,0,0,-5],[1,0,0,0,5],[1,1,0,0,-5]];perimeter=orthogonalPerimeter;outlineConnect=0;targetShapes=umlLifeline;portConstraint=eastwest;newEdgeStyle={&quot;curved&quot;:0,&quot;rounded&quot;:0};" parent="2SuWnSA99DPPpRbEErow-2" vertex="1">
          <mxGeometry x="46" y="360" width="10" height="210" as="geometry" />
        </mxCell>
        <mxCell id="KJpOrB9tsoX88Z9so3ap-2" value="" style="html=1;points=[[0,0,0,0,5],[0,1,0,0,-5],[1,0,0,0,5],[1,1,0,0,-5]];perimeter=orthogonalPerimeter;outlineConnect=0;targetShapes=umlLifeline;portConstraint=eastwest;newEdgeStyle={&quot;curved&quot;:0,&quot;rounded&quot;:0};" parent="2SuWnSA99DPPpRbEErow-2" vertex="1">
          <mxGeometry x="45" y="80" width="10" height="60" as="geometry" />
        </mxCell>
        <mxCell id="e9LcL4o1iRo2LlaVkWCO-6" value="" style="html=1;points=[[0,0,0,0,5],[0,1,0,0,-5],[1,0,0,0,5],[1,1,0,0,-5]];perimeter=orthogonalPerimeter;outlineConnect=0;targetShapes=umlLifeline;portConstraint=eastwest;newEdgeStyle={&quot;curved&quot;:0,&quot;rounded&quot;:0};" parent="2SuWnSA99DPPpRbEErow-2" vertex="1">
          <mxGeometry x="50" y="420" width="10" height="40" as="geometry" />
        </mxCell>
        <mxCell id="e9LcL4o1iRo2LlaVkWCO-7" value="ПолучитьЛичныеДанныеПреподавателя():ЛичныеДанныеПреподавателя" style="html=1;align=left;spacingLeft=2;endArrow=block;rounded=0;edgeStyle=orthogonalEdgeStyle;curved=0;rounded=0;" parent="2SuWnSA99DPPpRbEErow-2" target="e9LcL4o1iRo2LlaVkWCO-6" edge="1">
          <mxGeometry x="-0.0093" relative="1" as="geometry">
            <mxPoint x="55" y="400" as="sourcePoint" />
            <Array as="points">
              <mxPoint x="85" y="430" />
            </Array>
            <mxPoint as="offset" />
          </mxGeometry>
        </mxCell>
        <mxCell id="RxykpupFUyI8Gsuq2Oce-1" value="" style="html=1;points=[[0,0,0,0,5],[0,1,0,0,-5],[1,0,0,0,5],[1,1,0,0,-5]];perimeter=orthogonalPerimeter;outlineConnect=0;targetShapes=umlLifeline;portConstraint=eastwest;newEdgeStyle={&quot;curved&quot;:0,&quot;rounded&quot;:0};" parent="2SuWnSA99DPPpRbEErow-2" vertex="1">
          <mxGeometry x="50" y="510" width="10" height="40" as="geometry" />
        </mxCell>
        <mxCell id="RxykpupFUyI8Gsuq2Oce-2" value="СохранитьНовогоПреподавателяВБД():Преподаватель" style="html=1;align=left;spacingLeft=2;endArrow=block;rounded=0;edgeStyle=orthogonalEdgeStyle;curved=0;rounded=0;" parent="2SuWnSA99DPPpRbEErow-2" target="RxykpupFUyI8Gsuq2Oce-1" edge="1">
          <mxGeometry relative="1" as="geometry">
            <mxPoint x="55" y="490" as="sourcePoint" />
            <Array as="points">
              <mxPoint x="85" y="520" />
            </Array>
          </mxGeometry>
        </mxCell>
        <mxCell id="KJpOrB9tsoX88Z9so3ap-1" style="edgeStyle=orthogonalEdgeStyle;rounded=0;orthogonalLoop=1;jettySize=auto;html=1;curved=0;" parent="1" target="2SuWnSA99DPPpRbEErow-2" edge="1">
          <mxGeometry relative="1" as="geometry">
            <mxPoint x="430" y="130" as="targetPoint" />
            <mxPoint x="95" y="180" as="sourcePoint" />
            <Array as="points">
              <mxPoint x="95" y="181" />
            </Array>
          </mxGeometry>
        </mxCell>
        <mxCell id="KJpOrB9tsoX88Z9so3ap-3" value="ПолучитьПеречньПреподавателей():Преподаватель" style="edgeLabel;html=1;align=center;verticalAlign=middle;resizable=0;points=[];" parent="KJpOrB9tsoX88Z9so3ap-1" vertex="1" connectable="0">
          <mxGeometry x="-0.3502" relative="1" as="geometry">
            <mxPoint x="38" y="-11" as="offset" />
          </mxGeometry>
        </mxCell>
        <mxCell id="e9LcL4o1iRo2LlaVkWCO-3" style="edgeStyle=orthogonalEdgeStyle;rounded=0;orthogonalLoop=1;jettySize=auto;html=1;curved=0;" parent="1" source="2SuWnSA99DPPpRbEErow-1" target="2SuWnSA99DPPpRbEErow-2" edge="1">
          <mxGeometry relative="1" as="geometry">
            <Array as="points">
              <mxPoint x="420" y="460" />
              <mxPoint x="420" y="460" />
            </Array>
          </mxGeometry>
        </mxCell>
        <mxCell id="e9LcL4o1iRo2LlaVkWCO-8" value="&lt;span style=&quot;text-align: left;&quot;&gt;СоздатьНовоеЛДПреподавателя():ЛДПреподавателя&lt;/span&gt;" style="edgeLabel;html=1;align=center;verticalAlign=middle;resizable=0;points=[];" parent="e9LcL4o1iRo2LlaVkWCO-3" vertex="1" connectable="0">
          <mxGeometry x="-0.0988" y="-5" relative="1" as="geometry">
            <mxPoint x="10" y="-15" as="offset" />
          </mxGeometry>
        </mxCell>
      </root>
    </mxGraphModel>
  </diagram>
  <diagram id="M4CpFcbBAaataZh6NHn3" name="ДП Работать с данными поступающих">
    <mxGraphModel dx="1050" dy="661" grid="1" gridSize="10" guides="1" tooltips="1" connect="1" arrows="1" fold="1" page="1" pageScale="1" pageWidth="827" pageHeight="1169" math="0" shadow="0">
      <root>
        <mxCell id="0" />
        <mxCell id="1" parent="0" />
        <mxCell id="I5DP8-BoOTLGiMz2T4dt-1" value="" style="shape=umlLifeline;perimeter=lifelinePerimeter;whiteSpace=wrap;html=1;container=1;dropTarget=0;collapsible=0;recursiveResize=0;outlineConnect=0;portConstraint=eastwest;newEdgeStyle={&quot;curved&quot;:0,&quot;rounded&quot;:0};participant=umlActor;" parent="1" vertex="1">
          <mxGeometry x="90" y="150" width="20" height="520" as="geometry" />
        </mxCell>
        <mxCell id="VsG27GPGSmAYt9QTBCAz-1" value="" style="html=1;points=[[0,0,0,0,5],[0,1,0,0,-5],[1,0,0,0,5],[1,1,0,0,-5]];perimeter=orthogonalPerimeter;outlineConnect=0;targetShapes=umlLifeline;portConstraint=eastwest;newEdgeStyle={&quot;curved&quot;:0,&quot;rounded&quot;:0};" parent="I5DP8-BoOTLGiMz2T4dt-1" vertex="1">
          <mxGeometry x="5" y="70" width="10" height="360" as="geometry" />
        </mxCell>
        <mxCell id="8Za7L209P9gRxeqMtF9T-1" value="" style="html=1;points=[[0,0,0,0,5],[0,1,0,0,-5],[1,0,0,0,5],[1,1,0,0,-5]];perimeter=orthogonalPerimeter;outlineConnect=0;targetShapes=umlLifeline;portConstraint=eastwest;newEdgeStyle={&quot;curved&quot;:0,&quot;rounded&quot;:0};" parent="I5DP8-BoOTLGiMz2T4dt-1" vertex="1">
          <mxGeometry x="5" y="130" width="10" height="40" as="geometry" />
        </mxCell>
        <mxCell id="8Za7L209P9gRxeqMtF9T-2" value="ПолучитьФИОПоступающего():ФИОПоступающего" style="html=1;align=left;spacingLeft=2;endArrow=block;rounded=0;edgeStyle=orthogonalEdgeStyle;curved=0;rounded=0;" parent="I5DP8-BoOTLGiMz2T4dt-1" target="8Za7L209P9gRxeqMtF9T-1" edge="1">
          <mxGeometry relative="1" as="geometry">
            <mxPoint x="10" y="110" as="sourcePoint" />
            <Array as="points">
              <mxPoint x="40" y="140" />
            </Array>
          </mxGeometry>
        </mxCell>
        <mxCell id="oM5nVTRDdeC3sPqhmBQ0-1" value="" style="html=1;points=[[0,0,0,0,5],[0,1,0,0,-5],[1,0,0,0,5],[1,1,0,0,-5]];perimeter=orthogonalPerimeter;outlineConnect=0;targetShapes=umlLifeline;portConstraint=eastwest;newEdgeStyle={&quot;curved&quot;:0,&quot;rounded&quot;:0};" parent="I5DP8-BoOTLGiMz2T4dt-1" vertex="1">
          <mxGeometry x="5" y="310" width="10" height="40" as="geometry" />
        </mxCell>
        <mxCell id="oM5nVTRDdeC3sPqhmBQ0-2" value="ПолучитьСтатусЗачисленияПоступающего():СтатусЗачисления" style="html=1;align=left;spacingLeft=2;endArrow=block;rounded=0;edgeStyle=orthogonalEdgeStyle;curved=0;rounded=0;" parent="I5DP8-BoOTLGiMz2T4dt-1" target="oM5nVTRDdeC3sPqhmBQ0-1" edge="1">
          <mxGeometry relative="1" as="geometry">
            <mxPoint x="10" y="270" as="sourcePoint" />
            <Array as="points">
              <mxPoint x="40" y="300" />
            </Array>
          </mxGeometry>
        </mxCell>
        <mxCell id="h82H7liTuh-v_kTRQIHy-1" value="" style="html=1;points=[[0,0,0,0,5],[0,1,0,0,-5],[1,0,0,0,5],[1,1,0,0,-5]];perimeter=orthogonalPerimeter;outlineConnect=0;targetShapes=umlLifeline;portConstraint=eastwest;newEdgeStyle={&quot;curved&quot;:0,&quot;rounded&quot;:0};" vertex="1" parent="I5DP8-BoOTLGiMz2T4dt-1">
          <mxGeometry x="5" y="240" width="10" height="40" as="geometry" />
        </mxCell>
        <mxCell id="I5DP8-BoOTLGiMz2T4dt-2" value="Администрация школы" style="text;html=1;align=center;verticalAlign=middle;resizable=0;points=[];autosize=1;strokeColor=none;fillColor=none;" parent="1" vertex="1">
          <mxGeometry x="25" y="120" width="150" height="30" as="geometry" />
        </mxCell>
        <mxCell id="I5DP8-BoOTLGiMz2T4dt-3" value=":Поступающий" style="shape=umlLifeline;perimeter=lifelinePerimeter;whiteSpace=wrap;html=1;container=1;dropTarget=0;collapsible=0;recursiveResize=0;outlineConnect=0;portConstraint=eastwest;newEdgeStyle={&quot;curved&quot;:0,&quot;rounded&quot;:0};" parent="1" vertex="1">
          <mxGeometry x="470" y="150" width="100" height="530" as="geometry" />
        </mxCell>
        <mxCell id="VsG27GPGSmAYt9QTBCAz-2" value="" style="html=1;points=[[0,0,0,0,5],[0,1,0,0,-5],[1,0,0,0,5],[1,1,0,0,-5]];perimeter=orthogonalPerimeter;outlineConnect=0;targetShapes=umlLifeline;portConstraint=eastwest;newEdgeStyle={&quot;curved&quot;:0,&quot;rounded&quot;:0};" parent="I5DP8-BoOTLGiMz2T4dt-3" vertex="1">
          <mxGeometry x="45" y="70" width="10" height="80" as="geometry" />
        </mxCell>
        <mxCell id="WIecglRSiBNNbNzKmK5W-3" value="" style="html=1;points=[[0,0,0,0,5],[0,1,0,0,-5],[1,0,0,0,5],[1,1,0,0,-5]];perimeter=orthogonalPerimeter;outlineConnect=0;targetShapes=umlLifeline;portConstraint=eastwest;newEdgeStyle={&quot;curved&quot;:0,&quot;rounded&quot;:0};" parent="I5DP8-BoOTLGiMz2T4dt-3" vertex="1">
          <mxGeometry x="45" y="380" width="10" height="110" as="geometry" />
        </mxCell>
        <mxCell id="oM5nVTRDdeC3sPqhmBQ0-5" value="" style="html=1;points=[[0,0,0,0,5],[0,1,0,0,-5],[1,0,0,0,5],[1,1,0,0,-5]];perimeter=orthogonalPerimeter;outlineConnect=0;targetShapes=umlLifeline;portConstraint=eastwest;newEdgeStyle={&quot;curved&quot;:0,&quot;rounded&quot;:0};" parent="I5DP8-BoOTLGiMz2T4dt-3" vertex="1">
          <mxGeometry x="50" y="420" width="10" height="40" as="geometry" />
        </mxCell>
        <mxCell id="oM5nVTRDdeC3sPqhmBQ0-6" value="СохранитьСтатусЗачисления():Поступающий" style="html=1;align=left;spacingLeft=2;endArrow=block;rounded=0;edgeStyle=orthogonalEdgeStyle;curved=0;rounded=0;" parent="I5DP8-BoOTLGiMz2T4dt-3" target="oM5nVTRDdeC3sPqhmBQ0-5" edge="1">
          <mxGeometry relative="1" as="geometry">
            <mxPoint x="55" y="400" as="sourcePoint" />
            <Array as="points">
              <mxPoint x="85" y="430" />
            </Array>
          </mxGeometry>
        </mxCell>
        <mxCell id="VsG27GPGSmAYt9QTBCAz-3" style="edgeStyle=orthogonalEdgeStyle;rounded=0;orthogonalLoop=1;jettySize=auto;html=1;curved=0;" parent="1" edge="1">
          <mxGeometry relative="1" as="geometry">
            <mxPoint x="105" y="240" as="sourcePoint" />
            <mxPoint x="515" y="240" as="targetPoint" />
            <Array as="points">
              <mxPoint x="220" y="240" />
              <mxPoint x="220" y="240" />
            </Array>
          </mxGeometry>
        </mxCell>
        <mxCell id="VsG27GPGSmAYt9QTBCAz-4" value="ПолучитьПеречньПоступающих():Поступающий" style="edgeLabel;html=1;align=center;verticalAlign=middle;resizable=0;points=[];" parent="VsG27GPGSmAYt9QTBCAz-3" vertex="1" connectable="0">
          <mxGeometry x="0.0215" y="-1" relative="1" as="geometry">
            <mxPoint x="-14" y="-11" as="offset" />
          </mxGeometry>
        </mxCell>
        <mxCell id="oM5nVTRDdeC3sPqhmBQ0-3" style="edgeStyle=orthogonalEdgeStyle;rounded=0;orthogonalLoop=1;jettySize=auto;html=1;curved=0;" parent="1" source="VsG27GPGSmAYt9QTBCAz-1" target="WIecglRSiBNNbNzKmK5W-3" edge="1">
          <mxGeometry relative="1" as="geometry">
            <Array as="points">
              <mxPoint x="220" y="540" />
              <mxPoint x="220" y="540" />
            </Array>
          </mxGeometry>
        </mxCell>
        <mxCell id="oM5nVTRDdeC3sPqhmBQ0-4" value="ПередатьСтатусЗачисления():СтатусЗачисления" style="edgeLabel;html=1;align=center;verticalAlign=middle;resizable=0;points=[];" parent="oM5nVTRDdeC3sPqhmBQ0-3" vertex="1" connectable="0">
          <mxGeometry x="-0.4663" y="-2" relative="1" as="geometry">
            <mxPoint x="76" y="-12" as="offset" />
          </mxGeometry>
        </mxCell>
        <mxCell id="5lJU-xRq1edtps7PHNm4-1" value=":Родитель" style="shape=umlLifeline;perimeter=lifelinePerimeter;whiteSpace=wrap;html=1;container=1;dropTarget=0;collapsible=0;recursiveResize=0;outlineConnect=0;portConstraint=eastwest;newEdgeStyle={&quot;curved&quot;:0,&quot;rounded&quot;:0};" vertex="1" parent="1">
          <mxGeometry x="800" y="150" width="100" height="520" as="geometry" />
        </mxCell>
        <mxCell id="5lJU-xRq1edtps7PHNm4-2" value="" style="html=1;points=[[0,0,0,0,5],[0,1,0,0,-5],[1,0,0,0,5],[1,1,0,0,-5]];perimeter=orthogonalPerimeter;outlineConnect=0;targetShapes=umlLifeline;portConstraint=eastwest;newEdgeStyle={&quot;curved&quot;:0,&quot;rounded&quot;:0};" vertex="1" parent="5lJU-xRq1edtps7PHNm4-1">
          <mxGeometry x="45" y="180" width="10" height="80" as="geometry" />
        </mxCell>
        <mxCell id="5lJU-xRq1edtps7PHNm4-3" style="edgeStyle=orthogonalEdgeStyle;rounded=0;orthogonalLoop=1;jettySize=auto;html=1;curved=0;" edge="1" parent="1">
          <mxGeometry relative="1" as="geometry">
            <mxPoint x="105" y="350" as="sourcePoint" />
            <mxPoint x="845" y="350" as="targetPoint" />
            <Array as="points">
              <mxPoint x="290" y="350" />
              <mxPoint x="290" y="350" />
            </Array>
          </mxGeometry>
        </mxCell>
        <mxCell id="ZBA9Hy3bm7EszHZfofAr-1" value="&lt;span style=&quot;text-align: left;&quot;&gt;ПолучитьЛичноеДелоПоступающегоРебенка():ЛДПоступающего&lt;/span&gt;" style="edgeLabel;html=1;align=center;verticalAlign=middle;resizable=0;points=[];" vertex="1" connectable="0" parent="5lJU-xRq1edtps7PHNm4-3">
          <mxGeometry x="-0.1524" y="4" relative="1" as="geometry">
            <mxPoint x="-69" y="-6" as="offset" />
          </mxGeometry>
        </mxCell>
        <mxCell id="h82H7liTuh-v_kTRQIHy-2" value="ПолучитьДокументыПоступающего():ДокументыПоступающего" style="html=1;align=left;spacingLeft=2;endArrow=block;rounded=0;edgeStyle=orthogonalEdgeStyle;curved=0;rounded=0;" edge="1" parent="1">
          <mxGeometry x="0.0118" relative="1" as="geometry">
            <mxPoint x="100" y="380" as="sourcePoint" />
            <Array as="points">
              <mxPoint x="130" y="410" />
            </Array>
            <mxPoint x="105" y="410" as="targetPoint" />
            <mxPoint as="offset" />
          </mxGeometry>
        </mxCell>
      </root>
    </mxGraphModel>
  </diagram>
  <diagram id="-KyGj9iOlbqH_zolTVG5" name="Диаграмма классов">
    <mxGraphModel dx="1909" dy="1202" grid="1" gridSize="10" guides="1" tooltips="1" connect="1" arrows="1" fold="1" page="1" pageScale="1" pageWidth="827" pageHeight="1169" math="0" shadow="0">
      <root>
        <mxCell id="il51EQe1dhMxAWnOGupQ-0" />
        <mxCell id="il51EQe1dhMxAWnOGupQ-1" parent="il51EQe1dhMxAWnOGupQ-0" />
        <mxCell id="QgdNQKR_k15dnJ27Vs94-0" style="edgeStyle=orthogonalEdgeStyle;rounded=0;orthogonalLoop=1;jettySize=auto;html=1;entryX=0.25;entryY=0;entryDx=0;entryDy=0;endArrow=none;endFill=0;" parent="il51EQe1dhMxAWnOGupQ-1" source="hQheS328YxkhFlJrAXXw-0" target="hQheS328YxkhFlJrAXXw-20" edge="1">
          <mxGeometry relative="1" as="geometry" />
        </mxCell>
        <mxCell id="hQheS328YxkhFlJrAXXw-0" value="Успеваемость" style="swimlane;fontStyle=1;align=center;verticalAlign=top;childLayout=stackLayout;horizontal=1;startSize=26;horizontalStack=0;resizeParent=1;resizeParentMax=0;resizeLast=0;collapsible=1;marginBottom=0;whiteSpace=wrap;html=1;" parent="il51EQe1dhMxAWnOGupQ-1" vertex="1">
          <mxGeometry x="160" y="80" width="160" height="146" as="geometry" />
        </mxCell>
        <mxCell id="hQheS328YxkhFlJrAXXw-1" value="&lt;div&gt;-ФИО Ученика&lt;/div&gt;&lt;div&gt;-Предмет&lt;/div&gt;-Оценка&lt;div&gt;-Дата выставления оценки&lt;br&gt;&lt;div&gt;-Примечание&lt;/div&gt;&lt;/div&gt;" style="text;strokeColor=none;fillColor=none;align=left;verticalAlign=top;spacingLeft=4;spacingRight=4;overflow=hidden;rotatable=0;points=[[0,0.5],[1,0.5]];portConstraint=eastwest;whiteSpace=wrap;html=1;" parent="hQheS328YxkhFlJrAXXw-0" vertex="1">
          <mxGeometry y="26" width="160" height="90" as="geometry" />
        </mxCell>
        <mxCell id="hQheS328YxkhFlJrAXXw-2" value="" style="line;strokeWidth=1;fillColor=none;align=left;verticalAlign=middle;spacingTop=-1;spacingLeft=3;spacingRight=3;rotatable=0;labelPosition=right;points=[];portConstraint=eastwest;strokeColor=inherit;" parent="hQheS328YxkhFlJrAXXw-0" vertex="1">
          <mxGeometry y="116" width="160" height="30" as="geometry" />
        </mxCell>
        <mxCell id="QgdNQKR_k15dnJ27Vs94-1" style="edgeStyle=orthogonalEdgeStyle;rounded=0;orthogonalLoop=1;jettySize=auto;html=1;entryX=0.75;entryY=0;entryDx=0;entryDy=0;endArrow=none;endFill=0;" parent="il51EQe1dhMxAWnOGupQ-1" source="hQheS328YxkhFlJrAXXw-4" target="hQheS328YxkhFlJrAXXw-20" edge="1">
          <mxGeometry relative="1" as="geometry" />
        </mxCell>
        <mxCell id="hQheS328YxkhFlJrAXXw-4" value="Посещаемость" style="swimlane;fontStyle=1;align=center;verticalAlign=top;childLayout=stackLayout;horizontal=1;startSize=26;horizontalStack=0;resizeParent=1;resizeParentMax=0;resizeLast=0;collapsible=1;marginBottom=0;whiteSpace=wrap;html=1;" parent="il51EQe1dhMxAWnOGupQ-1" vertex="1">
          <mxGeometry x="420" y="90" width="174" height="110" as="geometry" />
        </mxCell>
        <mxCell id="hQheS328YxkhFlJrAXXw-5" value="&lt;div&gt;-ФИО Ученика&lt;/div&gt;&lt;div&gt;-Название предмета&lt;/div&gt;&lt;div&gt;-Дата посеещения&lt;/div&gt;-Данные о посещении" style="text;strokeColor=none;fillColor=none;align=left;verticalAlign=top;spacingLeft=4;spacingRight=4;overflow=hidden;rotatable=0;points=[[0,0.5],[1,0.5]];portConstraint=eastwest;whiteSpace=wrap;html=1;" parent="hQheS328YxkhFlJrAXXw-4" vertex="1">
          <mxGeometry y="26" width="174" height="62" as="geometry" />
        </mxCell>
        <mxCell id="hQheS328YxkhFlJrAXXw-6" value="" style="line;strokeWidth=1;fillColor=none;align=left;verticalAlign=middle;spacingTop=-1;spacingLeft=3;spacingRight=3;rotatable=0;labelPosition=right;points=[];portConstraint=eastwest;strokeColor=inherit;" parent="hQheS328YxkhFlJrAXXw-4" vertex="1">
          <mxGeometry y="88" width="174" height="22" as="geometry" />
        </mxCell>
        <mxCell id="hQheS328YxkhFlJrAXXw-8" value="Администрация школы" style="swimlane;fontStyle=1;align=center;verticalAlign=top;childLayout=stackLayout;horizontal=1;startSize=26;horizontalStack=0;resizeParent=1;resizeParentMax=0;resizeLast=0;collapsible=1;marginBottom=0;whiteSpace=wrap;html=1;" parent="il51EQe1dhMxAWnOGupQ-1" vertex="1">
          <mxGeometry x="520" y="530" width="360" height="320" as="geometry" />
        </mxCell>
        <mxCell id="hQheS328YxkhFlJrAXXw-9" value="-ФИО&lt;div&gt;-Возраст&lt;/div&gt;&lt;div&gt;-Паспорт&lt;/div&gt;&lt;div&gt;-ИНН&lt;/div&gt;&lt;div&gt;-Личное дело&lt;/div&gt;&lt;div&gt;-Телефон&lt;/div&gt;&lt;div&gt;-Адрес&lt;/div&gt;" style="text;strokeColor=none;fillColor=none;align=left;verticalAlign=top;spacingLeft=4;spacingRight=4;overflow=hidden;rotatable=0;points=[[0,0.5],[1,0.5]];portConstraint=eastwest;whiteSpace=wrap;html=1;" parent="hQheS328YxkhFlJrAXXw-8" vertex="1">
          <mxGeometry y="26" width="360" height="114" as="geometry" />
        </mxCell>
        <mxCell id="hQheS328YxkhFlJrAXXw-10" value="" style="line;strokeWidth=1;fillColor=none;align=left;verticalAlign=middle;spacingTop=-1;spacingLeft=3;spacingRight=3;rotatable=0;labelPosition=right;points=[];portConstraint=eastwest;strokeColor=inherit;" parent="hQheS328YxkhFlJrAXXw-8" vertex="1">
          <mxGeometry y="140" width="360" height="8" as="geometry" />
        </mxCell>
        <mxCell id="hQheS328YxkhFlJrAXXw-11" value="+&amp;nbsp;&lt;span style=&quot;font-size: 11px; text-align: center; text-wrap: nowrap; background-color: rgb(255, 255, 255);&quot;&gt;ПолучитьПеречньПреподавателей():Преподаватель&lt;br&gt;+&lt;/span&gt;&lt;span style=&quot;font-size: 11px; text-wrap: nowrap; background-color: rgb(255, 255, 255);&quot;&gt;ПолучитьФИОПреподавателя():ФИОПреподавателя&lt;/span&gt;&lt;div&gt;&lt;span style=&quot;font-size: 11px; text-align: center; text-wrap: nowrap; background-color: rgb(255, 255, 255);&quot;&gt;+&lt;/span&gt;&lt;span style=&quot;background-color: rgb(255, 255, 255); font-size: 11px; text-wrap: nowrap;&quot;&gt;ПолучитьЛичноеДелоПреподавателя():ЛДПреподавателя&lt;/span&gt;&lt;/div&gt;&lt;div&gt;&lt;span style=&quot;font-size: 11px; text-align: center; text-wrap: nowrap; background-color: rgb(255, 255, 255);&quot;&gt;+&lt;/span&gt;&lt;span style=&quot;background-color: rgb(255, 255, 255); font-size: 11px; text-wrap: nowrap;&quot;&gt;ОткрытьФорму(Преподаватель)&lt;/span&gt;&lt;/div&gt;&lt;div&gt;&lt;span style=&quot;font-size: 11px; text-align: center; text-wrap: nowrap; background-color: rgb(255, 255, 255);&quot;&gt;+&lt;/span&gt;&lt;span style=&quot;background-color: rgb(255, 255, 255); font-size: 11px; text-wrap: nowrap;&quot;&gt;СоздатьНовоеЛДПреподавателя():ЛДПреподавателя&lt;/span&gt;&lt;/div&gt;&lt;div&gt;&lt;span style=&quot;font-size: 11px; text-align: center; text-wrap: nowrap; background-color: rgb(255, 255, 255);&quot;&gt;+&lt;/span&gt;&lt;span style=&quot;background-color: rgb(255, 255, 255); font-size: 11px; text-align: center; text-wrap: nowrap;&quot;&gt;ПолучитьПеречньПоступающих():Поступающий&lt;/span&gt;&lt;/div&gt;&lt;div&gt;&lt;span style=&quot;font-size: 11px; text-align: center; text-wrap: nowrap; background-color: rgb(255, 255, 255);&quot;&gt;+&lt;/span&gt;&lt;span style=&quot;background-color: rgb(255, 255, 255); font-size: 11px; text-wrap: nowrap;&quot;&gt;ПолучитьФИОПоступающего():ФИОПоступающего&lt;/span&gt;&lt;/div&gt;&lt;div&gt;&lt;span style=&quot;font-size: 11px; text-align: center; text-wrap: nowrap; background-color: rgb(255, 255, 255);&quot;&gt;+&lt;/span&gt;&lt;span style=&quot;background-color: rgb(255, 255, 255); font-size: 11px; text-wrap: nowrap;&quot;&gt;ПолучитьЛичноеДелоПоступающего():ЛДПоступающего&lt;/span&gt;&lt;/div&gt;&lt;div&gt;&lt;span style=&quot;background-color: rgb(255, 255, 255); font-size: 11px; text-wrap: nowrap;&quot;&gt;+&lt;/span&gt;&lt;span style=&quot;background-color: rgb(255, 255, 255); font-size: 11px; text-wrap: nowrap;&quot;&gt;ПолучитьДокументыПоступающего():ДокументыПоступающего&lt;/span&gt;&lt;/div&gt;&lt;div&gt;&lt;span style=&quot;background-color: rgb(255, 255, 255); font-size: 11px; text-wrap: nowrap;&quot;&gt;+&lt;/span&gt;&lt;span style=&quot;background-color: rgb(255, 255, 255); font-size: 11px; text-wrap: nowrap;&quot;&gt;ПолучитьСтатусЗачисленияПоступающего():СтатусЗачисления&lt;/span&gt;&lt;/div&gt;&lt;div&gt;&lt;span style=&quot;background-color: rgb(255, 255, 255); font-size: 11px; text-wrap: nowrap;&quot;&gt;+&lt;/span&gt;&lt;span style=&quot;background-color: rgb(255, 255, 255); font-size: 11px; text-align: center; text-wrap: nowrap;&quot;&gt;ПередатьСтатусЗачисления():СтатусЗачисления&lt;/span&gt;&lt;/div&gt;" style="text;strokeColor=none;fillColor=none;align=left;verticalAlign=top;spacingLeft=4;spacingRight=4;overflow=hidden;rotatable=0;points=[[0,0.5],[1,0.5]];portConstraint=eastwest;whiteSpace=wrap;html=1;" parent="hQheS328YxkhFlJrAXXw-8" vertex="1">
          <mxGeometry y="148" width="360" height="172" as="geometry" />
        </mxCell>
        <mxCell id="hQheS328YxkhFlJrAXXw-12" value="Сотрудник" style="swimlane;fontStyle=1;align=center;verticalAlign=top;childLayout=stackLayout;horizontal=1;startSize=26;horizontalStack=0;resizeParent=1;resizeParentMax=0;resizeLast=0;collapsible=1;marginBottom=0;whiteSpace=wrap;html=1;" parent="il51EQe1dhMxAWnOGupQ-1" vertex="1">
          <mxGeometry x="740" y="259" width="160" height="198" as="geometry" />
        </mxCell>
        <mxCell id="hQheS328YxkhFlJrAXXw-13" value="-ФИО&lt;div&gt;-Возраст&lt;/div&gt;&lt;div&gt;-Адрес&lt;/div&gt;&lt;div&gt;-Доля ставки&lt;/div&gt;&lt;div&gt;-ИНН&lt;/div&gt;&lt;div&gt;-Личное дело&lt;/div&gt;&lt;div&gt;-Телефон&lt;/div&gt;&lt;div&gt;-Паспорт&lt;/div&gt;" style="text;strokeColor=none;fillColor=none;align=left;verticalAlign=top;spacingLeft=4;spacingRight=4;overflow=hidden;rotatable=0;points=[[0,0.5],[1,0.5]];portConstraint=eastwest;whiteSpace=wrap;html=1;" parent="hQheS328YxkhFlJrAXXw-12" vertex="1">
          <mxGeometry y="26" width="160" height="134" as="geometry" />
        </mxCell>
        <mxCell id="hQheS328YxkhFlJrAXXw-14" value="" style="line;strokeWidth=1;fillColor=none;align=left;verticalAlign=middle;spacingTop=-1;spacingLeft=3;spacingRight=3;rotatable=0;labelPosition=right;points=[];portConstraint=eastwest;strokeColor=inherit;" parent="hQheS328YxkhFlJrAXXw-12" vertex="1">
          <mxGeometry y="160" width="160" height="38" as="geometry" />
        </mxCell>
        <mxCell id="IAo7c-dm8MVDVrSLSXnn-10" style="edgeStyle=orthogonalEdgeStyle;rounded=0;orthogonalLoop=1;jettySize=auto;html=1;entryX=1;entryY=0.5;entryDx=0;entryDy=0;endArrow=none;endFill=0;" parent="il51EQe1dhMxAWnOGupQ-1" source="hQheS328YxkhFlJrAXXw-16" target="hQheS328YxkhFlJrAXXw-5" edge="1">
          <mxGeometry relative="1" as="geometry" />
        </mxCell>
        <mxCell id="hQheS328YxkhFlJrAXXw-16" value="Преподаватель" style="swimlane;fontStyle=1;align=center;verticalAlign=top;childLayout=stackLayout;horizontal=1;startSize=26;horizontalStack=0;resizeParent=1;resizeParentMax=0;resizeLast=0;collapsible=1;marginBottom=0;whiteSpace=wrap;html=1;" parent="il51EQe1dhMxAWnOGupQ-1" vertex="1">
          <mxGeometry x="940" y="499" width="410" height="110" as="geometry" />
        </mxCell>
        <mxCell id="QgdNQKR_k15dnJ27Vs94-2" value="" style="endArrow=block;endFill=0;endSize=12;html=1;rounded=0;entryX=0.998;entryY=1.001;entryDx=0;entryDy=0;entryPerimeter=0;" parent="hQheS328YxkhFlJrAXXw-16" target="hQheS328YxkhFlJrAXXw-13" edge="1">
          <mxGeometry width="160" relative="1" as="geometry">
            <mxPoint x="70" as="sourcePoint" />
            <mxPoint x="230" as="targetPoint" />
          </mxGeometry>
        </mxCell>
        <mxCell id="hQheS328YxkhFlJrAXXw-17" value="-Должность=преподаватель" style="text;strokeColor=none;fillColor=none;align=left;verticalAlign=top;spacingLeft=4;spacingRight=4;overflow=hidden;rotatable=0;points=[[0,0.5],[1,0.5]];portConstraint=eastwest;whiteSpace=wrap;html=1;" parent="hQheS328YxkhFlJrAXXw-16" vertex="1">
          <mxGeometry y="26" width="410" height="26" as="geometry" />
        </mxCell>
        <mxCell id="hQheS328YxkhFlJrAXXw-18" value="" style="line;strokeWidth=1;fillColor=none;align=left;verticalAlign=middle;spacingTop=-1;spacingLeft=3;spacingRight=3;rotatable=0;labelPosition=right;points=[];portConstraint=eastwest;strokeColor=inherit;" parent="hQheS328YxkhFlJrAXXw-16" vertex="1">
          <mxGeometry y="52" width="410" height="8" as="geometry" />
        </mxCell>
        <mxCell id="hQheS328YxkhFlJrAXXw-19" value="+&lt;span style=&quot;font-size: 11px; text-wrap: nowrap; background-color: rgb(255, 255, 255);&quot;&gt;ПолучитьЛичныеДанныеПреподавателя():ЛичныеДанныеПреподавателя&lt;/span&gt;&lt;div&gt;&lt;span style=&quot;font-size: 11px; text-wrap: nowrap; background-color: rgb(255, 255, 255);&quot;&gt;+&lt;/span&gt;&lt;span style=&quot;background-color: rgb(255, 255, 255); font-size: 11px; text-wrap: nowrap;&quot;&gt;СохранитьНовогоПреподавателяВБД():Преподаватель&lt;/span&gt;&lt;/div&gt;" style="text;strokeColor=none;fillColor=none;align=left;verticalAlign=top;spacingLeft=4;spacingRight=4;overflow=hidden;rotatable=0;points=[[0,0.5],[1,0.5]];portConstraint=eastwest;whiteSpace=wrap;html=1;" parent="hQheS328YxkhFlJrAXXw-16" vertex="1">
          <mxGeometry y="60" width="410" height="50" as="geometry" />
        </mxCell>
        <mxCell id="hQheS328YxkhFlJrAXXw-20" value="Учащийся" style="swimlane;fontStyle=1;align=center;verticalAlign=top;childLayout=stackLayout;horizontal=1;startSize=26;horizontalStack=0;resizeParent=1;resizeParentMax=0;resizeLast=0;collapsible=1;marginBottom=0;whiteSpace=wrap;html=1;" parent="il51EQe1dhMxAWnOGupQ-1" vertex="1">
          <mxGeometry x="290" y="260" width="290" height="220" as="geometry" />
        </mxCell>
        <mxCell id="hQheS328YxkhFlJrAXXw-21" value="-ФИО&lt;div&gt;-Класс&lt;/div&gt;&lt;div&gt;-Возраст&lt;/div&gt;&lt;div&gt;-Адрес&lt;/div&gt;&lt;div&gt;-Телефон&lt;/div&gt;&lt;div&gt;-Личное дело&lt;/div&gt;" style="text;strokeColor=none;fillColor=none;align=left;verticalAlign=top;spacingLeft=4;spacingRight=4;overflow=hidden;rotatable=0;points=[[0,0.5],[1,0.5]];portConstraint=eastwest;whiteSpace=wrap;html=1;" parent="hQheS328YxkhFlJrAXXw-20" vertex="1">
          <mxGeometry y="26" width="290" height="94" as="geometry" />
        </mxCell>
        <mxCell id="hQheS328YxkhFlJrAXXw-22" value="" style="line;strokeWidth=1;fillColor=none;align=left;verticalAlign=middle;spacingTop=-1;spacingLeft=3;spacingRight=3;rotatable=0;labelPosition=right;points=[];portConstraint=eastwest;strokeColor=inherit;" parent="hQheS328YxkhFlJrAXXw-20" vertex="1">
          <mxGeometry y="120" width="290" height="8" as="geometry" />
        </mxCell>
        <mxCell id="hQheS328YxkhFlJrAXXw-23" value="+&lt;span style=&quot;font-size: 11px; text-align: center; text-wrap: nowrap; background-color: rgb(255, 255, 255);&quot;&gt;ПолучитьПеречньПредметов():Предмет&lt;/span&gt;&lt;div&gt;&lt;span style=&quot;font-size: 11px; text-align: center; text-wrap: nowrap; background-color: rgb(255, 255, 255);&quot;&gt;+&lt;/span&gt;&lt;span style=&quot;background-color: rgb(255, 255, 255); font-size: 11px; text-wrap: nowrap;&quot;&gt;ПолучитьНазваниеПредмета():НазваниеПредмета&lt;/span&gt;&lt;/div&gt;&lt;div&gt;&lt;span style=&quot;font-size: 11px; text-align: center; text-wrap: nowrap; background-color: rgb(255, 255, 255);&quot;&gt;+&lt;/span&gt;&lt;span style=&quot;background-color: rgb(255, 255, 255); font-size: 11px; text-align: center; text-wrap: nowrap;&quot;&gt;ПолучитьДанныеОПосещаемостии():Посещаемость&lt;/span&gt;&lt;/div&gt;&lt;div&gt;&lt;span style=&quot;font-size: 11px; text-align: center; text-wrap: nowrap; background-color: rgb(255, 255, 255);&quot;&gt;+&lt;/span&gt;&lt;span style=&quot;background-color: rgb(255, 255, 255); font-size: 11px; text-align: center; text-wrap: nowrap;&quot;&gt;ПолучитьДанныеОбУспеваемости():Успеваемость&lt;/span&gt;&lt;/div&gt;&lt;div&gt;&lt;span style=&quot;font-size: 11px; text-align: center; text-wrap: nowrap; background-color: rgb(255, 255, 255);&quot;&gt;+&lt;/span&gt;&lt;span style=&quot;background-color: rgb(255, 255, 255); font-size: 11px; text-wrap: nowrap;&quot;&gt;ОтобразитьРезультаты(Результат)&lt;/span&gt;&lt;/div&gt;&lt;div&gt;&lt;br&gt;&lt;/div&gt;" style="text;strokeColor=none;fillColor=none;align=left;verticalAlign=top;spacingLeft=4;spacingRight=4;overflow=hidden;rotatable=0;points=[[0,0.5],[1,0.5]];portConstraint=eastwest;whiteSpace=wrap;html=1;" parent="hQheS328YxkhFlJrAXXw-20" vertex="1">
          <mxGeometry y="128" width="290" height="92" as="geometry" />
        </mxCell>
        <mxCell id="hQheS328YxkhFlJrAXXw-24" value="Родитель" style="swimlane;fontStyle=1;align=center;verticalAlign=top;childLayout=stackLayout;horizontal=1;startSize=26;horizontalStack=0;resizeParent=1;resizeParentMax=0;resizeLast=0;collapsible=1;marginBottom=0;whiteSpace=wrap;html=1;" parent="il51EQe1dhMxAWnOGupQ-1" vertex="1">
          <mxGeometry x="30" y="380" width="180" height="180" as="geometry" />
        </mxCell>
        <mxCell id="hQheS328YxkhFlJrAXXw-25" value="-ФИО&lt;div&gt;-Возраст&lt;/div&gt;&lt;div&gt;-Паспорт&lt;/div&gt;&lt;div&gt;-Место работы&lt;/div&gt;&lt;div&gt;-Контактные данные&lt;/div&gt;&lt;div&gt;-Личное дело поступающего ребенка&lt;/div&gt;&lt;div&gt;&lt;br&gt;&lt;/div&gt;" style="text;strokeColor=none;fillColor=none;align=left;verticalAlign=top;spacingLeft=4;spacingRight=4;overflow=hidden;rotatable=0;points=[[0,0.5],[1,0.5]];portConstraint=eastwest;whiteSpace=wrap;html=1;" parent="hQheS328YxkhFlJrAXXw-24" vertex="1">
          <mxGeometry y="26" width="180" height="114" as="geometry" />
        </mxCell>
        <mxCell id="hQheS328YxkhFlJrAXXw-26" value="" style="line;strokeWidth=1;fillColor=none;align=left;verticalAlign=middle;spacingTop=-1;spacingLeft=3;spacingRight=3;rotatable=0;labelPosition=right;points=[];portConstraint=eastwest;strokeColor=inherit;" parent="hQheS328YxkhFlJrAXXw-24" vertex="1">
          <mxGeometry y="140" width="180" height="40" as="geometry" />
        </mxCell>
        <mxCell id="uwj7o6scaefrWbEe5OCM-0" value="Поступающий" style="swimlane;fontStyle=1;align=center;verticalAlign=top;childLayout=stackLayout;horizontal=1;startSize=26;horizontalStack=0;resizeParent=1;resizeParentMax=0;resizeLast=0;collapsible=1;marginBottom=0;whiteSpace=wrap;html=1;" parent="il51EQe1dhMxAWnOGupQ-1" vertex="1">
          <mxGeometry x="140" y="640" width="270" height="160" as="geometry" />
        </mxCell>
        <mxCell id="uwj7o6scaefrWbEe5OCM-1" value="-ФИО&lt;div&gt;-Статус зачисления&lt;br&gt;&lt;div&gt;-Возраст&lt;/div&gt;&lt;div&gt;-Адрес&lt;/div&gt;&lt;div&gt;-Контактные данные&lt;/div&gt;&lt;/div&gt;&lt;div&gt;-Документы&lt;/div&gt;" style="text;strokeColor=none;fillColor=none;align=left;verticalAlign=top;spacingLeft=4;spacingRight=4;overflow=hidden;rotatable=0;points=[[0,0.5],[1,0.5]];portConstraint=eastwest;whiteSpace=wrap;html=1;" parent="uwj7o6scaefrWbEe5OCM-0" vertex="1">
          <mxGeometry y="26" width="270" height="94" as="geometry" />
        </mxCell>
        <mxCell id="uwj7o6scaefrWbEe5OCM-2" value="" style="line;strokeWidth=1;fillColor=none;align=left;verticalAlign=middle;spacingTop=-1;spacingLeft=3;spacingRight=3;rotatable=0;labelPosition=right;points=[];portConstraint=eastwest;strokeColor=inherit;" parent="uwj7o6scaefrWbEe5OCM-0" vertex="1">
          <mxGeometry y="120" width="270" height="8" as="geometry" />
        </mxCell>
        <mxCell id="uwj7o6scaefrWbEe5OCM-3" value="+&lt;span style=&quot;font-size: 11px; text-wrap: nowrap; background-color: rgb(255, 255, 255);&quot;&gt;СохранитьСтатусЗачисления():Поступающий&lt;/span&gt;" style="text;strokeColor=none;fillColor=none;align=left;verticalAlign=top;spacingLeft=4;spacingRight=4;overflow=hidden;rotatable=0;points=[[0,0.5],[1,0.5]];portConstraint=eastwest;whiteSpace=wrap;html=1;" parent="uwj7o6scaefrWbEe5OCM-0" vertex="1">
          <mxGeometry y="128" width="270" height="32" as="geometry" />
        </mxCell>
        <mxCell id="IAo7c-dm8MVDVrSLSXnn-0" style="edgeStyle=orthogonalEdgeStyle;rounded=0;orthogonalLoop=1;jettySize=auto;html=1;entryX=0;entryY=0.5;entryDx=0;entryDy=0;endArrow=none;endFill=0;" parent="il51EQe1dhMxAWnOGupQ-1" source="hQheS328YxkhFlJrAXXw-25" target="hQheS328YxkhFlJrAXXw-21" edge="1">
          <mxGeometry relative="1" as="geometry" />
        </mxCell>
        <mxCell id="IAo7c-dm8MVDVrSLSXnn-1" style="edgeStyle=orthogonalEdgeStyle;rounded=0;orthogonalLoop=1;jettySize=auto;html=1;endArrow=none;endFill=0;" parent="il51EQe1dhMxAWnOGupQ-1" source="uwj7o6scaefrWbEe5OCM-0" edge="1">
          <mxGeometry relative="1" as="geometry">
            <mxPoint x="50" y="560" as="targetPoint" />
          </mxGeometry>
        </mxCell>
        <mxCell id="IAo7c-dm8MVDVrSLSXnn-2" style="edgeStyle=orthogonalEdgeStyle;rounded=0;orthogonalLoop=1;jettySize=auto;html=1;entryX=0.004;entryY=0.245;entryDx=0;entryDy=0;entryPerimeter=0;endArrow=none;endFill=0;" parent="il51EQe1dhMxAWnOGupQ-1" source="hQheS328YxkhFlJrAXXw-8" target="hQheS328YxkhFlJrAXXw-13" edge="1">
          <mxGeometry relative="1" as="geometry" />
        </mxCell>
        <mxCell id="IAo7c-dm8MVDVrSLSXnn-3" style="edgeStyle=orthogonalEdgeStyle;rounded=0;orthogonalLoop=1;jettySize=auto;html=1;entryX=0.999;entryY=0.394;entryDx=0;entryDy=0;entryPerimeter=0;endArrow=none;endFill=0;" parent="il51EQe1dhMxAWnOGupQ-1" source="hQheS328YxkhFlJrAXXw-9" target="uwj7o6scaefrWbEe5OCM-1" edge="1">
          <mxGeometry relative="1" as="geometry" />
        </mxCell>
        <mxCell id="IAo7c-dm8MVDVrSLSXnn-4" style="edgeStyle=orthogonalEdgeStyle;rounded=0;orthogonalLoop=1;jettySize=auto;html=1;entryX=1;entryY=0.5;entryDx=0;entryDy=0;endArrow=none;endFill=0;" parent="il51EQe1dhMxAWnOGupQ-1" target="hQheS328YxkhFlJrAXXw-21" edge="1">
          <mxGeometry relative="1" as="geometry">
            <mxPoint x="1060" y="500" as="sourcePoint" />
            <Array as="points">
              <mxPoint x="1060" y="240" />
              <mxPoint x="620" y="240" />
              <mxPoint x="620" y="333" />
            </Array>
          </mxGeometry>
        </mxCell>
        <mxCell id="IAo7c-dm8MVDVrSLSXnn-9" style="edgeStyle=orthogonalEdgeStyle;rounded=0;orthogonalLoop=1;jettySize=auto;html=1;endArrow=none;endFill=0;" parent="il51EQe1dhMxAWnOGupQ-1" source="IAo7c-dm8MVDVrSLSXnn-5" edge="1">
          <mxGeometry relative="1" as="geometry">
            <mxPoint x="1170" y="610" as="targetPoint" />
            <Array as="points">
              <mxPoint x="1165" y="610" />
            </Array>
          </mxGeometry>
        </mxCell>
        <mxCell id="IAo7c-dm8MVDVrSLSXnn-5" value="Предмет" style="swimlane;fontStyle=1;align=center;verticalAlign=top;childLayout=stackLayout;horizontal=1;startSize=26;horizontalStack=0;resizeParent=1;resizeParentMax=0;resizeLast=0;collapsible=1;marginBottom=0;whiteSpace=wrap;html=1;" parent="il51EQe1dhMxAWnOGupQ-1" vertex="1">
          <mxGeometry x="1050" y="684" width="180" height="120" as="geometry" />
        </mxCell>
        <mxCell id="IAo7c-dm8MVDVrSLSXnn-6" value="-Название&lt;div&gt;-Преподаватель&lt;/div&gt;&lt;div&gt;-Часы изучения&lt;/div&gt;&lt;div&gt;-Методические материалы&lt;/div&gt;" style="text;strokeColor=none;fillColor=none;align=left;verticalAlign=top;spacingLeft=4;spacingRight=4;overflow=hidden;rotatable=0;points=[[0,0.5],[1,0.5]];portConstraint=eastwest;whiteSpace=wrap;html=1;" parent="IAo7c-dm8MVDVrSLSXnn-5" vertex="1">
          <mxGeometry y="26" width="180" height="64" as="geometry" />
        </mxCell>
        <mxCell id="IAo7c-dm8MVDVrSLSXnn-7" value="" style="line;strokeWidth=1;fillColor=none;align=left;verticalAlign=middle;spacingTop=-1;spacingLeft=3;spacingRight=3;rotatable=0;labelPosition=right;points=[];portConstraint=eastwest;strokeColor=inherit;" parent="IAo7c-dm8MVDVrSLSXnn-5" vertex="1">
          <mxGeometry y="90" width="180" height="30" as="geometry" />
        </mxCell>
        <mxCell id="IAo7c-dm8MVDVrSLSXnn-11" style="edgeStyle=orthogonalEdgeStyle;rounded=0;orthogonalLoop=1;jettySize=auto;html=1;entryX=0.642;entryY=-0.004;entryDx=0;entryDy=0;entryPerimeter=0;endArrow=none;endFill=0;" parent="il51EQe1dhMxAWnOGupQ-1" source="hQheS328YxkhFlJrAXXw-16" target="hQheS328YxkhFlJrAXXw-0" edge="1">
          <mxGeometry relative="1" as="geometry">
            <Array as="points">
              <mxPoint x="1145" y="60" />
              <mxPoint x="263" y="60" />
            </Array>
          </mxGeometry>
        </mxCell>
      </root>
    </mxGraphModel>
  </diagram>
  <diagram id="1UFuYJq8PLHJwxjN0RbR" name="Диаграмма развертывания">
    <mxGraphModel dx="2261" dy="780" grid="1" gridSize="10" guides="1" tooltips="1" connect="1" arrows="1" fold="1" page="1" pageScale="1" pageWidth="827" pageHeight="1169" math="0" shadow="0">
      <root>
        <mxCell id="0" />
        <mxCell id="1" parent="0" />
        <mxCell id="ykycnO4j1pN1IT8NL6aB-20" value="Веб-браузер" style="verticalAlign=top;align=left;spacingTop=8;spacingLeft=2;spacingRight=12;shape=cube;size=10;direction=south;fontStyle=4;html=1;whiteSpace=wrap;" parent="1" vertex="1">
          <mxGeometry x="-309" y="240" width="126" height="58" as="geometry" />
        </mxCell>
        <mxCell id="ykycnO4j1pN1IT8NL6aB-21" value="&amp;lt;&amp;lt;OS&amp;gt;&amp;gt;&lt;br&gt;Windows" style="verticalAlign=top;align=left;spacingTop=8;spacingLeft=2;spacingRight=12;shape=cube;size=10;direction=south;fontStyle=4;html=1;whiteSpace=wrap;" parent="1" vertex="1">
          <mxGeometry x="-309" y="328" width="126" height="58" as="geometry" />
        </mxCell>
        <mxCell id="ykycnO4j1pN1IT8NL6aB-22" value="" style="endArrow=none;html=1;rounded=0;entryX=0;entryY=0;entryDx=34;entryDy=126;entryPerimeter=0;startArrow=diamondThin;startFill=1;startSize=20;" parent="1" source="ykycnO4j1pN1IT8NL6aB-38" target="ykycnO4j1pN1IT8NL6aB-20" edge="1">
          <mxGeometry width="50" height="50" relative="1" as="geometry">
            <mxPoint x="-356.53919999999994" y="367.10400000000004" as="sourcePoint" />
            <mxPoint x="-310" y="324" as="targetPoint" />
            <Array as="points" />
          </mxGeometry>
        </mxCell>
        <mxCell id="ykycnO4j1pN1IT8NL6aB-23" value="" style="endArrow=none;html=1;rounded=0;entryX=0;entryY=0;entryDx=34;entryDy=126;entryPerimeter=0;startArrow=diamondThin;startFill=1;startSize=20;exitX=1;exitY=0.5;exitDx=0;exitDy=0;exitPerimeter=0;" parent="1" source="ykycnO4j1pN1IT8NL6aB-38" target="ykycnO4j1pN1IT8NL6aB-21" edge="1">
          <mxGeometry width="50" height="50" relative="1" as="geometry">
            <mxPoint x="-450" y="370" as="sourcePoint" />
            <mxPoint x="-319" y="444" as="targetPoint" />
          </mxGeometry>
        </mxCell>
        <mxCell id="ykycnO4j1pN1IT8NL6aB-24" value="&amp;lt;&amp;lt;device&amp;gt;&amp;gt; Сервер приложений" style="verticalAlign=top;align=left;spacingTop=8;spacingLeft=2;spacingRight=12;shape=cube;size=10;direction=south;fontStyle=4;html=1;whiteSpace=wrap;" parent="1" vertex="1">
          <mxGeometry x="-10" y="200" width="370" height="240" as="geometry" />
        </mxCell>
        <mxCell id="ykycnO4j1pN1IT8NL6aB-25" value="&amp;lt;&amp;lt;OS&amp;gt;&amp;gt; Linux" style="verticalAlign=top;align=left;spacingTop=8;spacingLeft=2;spacingRight=12;shape=cube;size=10;direction=south;fontStyle=4;html=1;whiteSpace=wrap;" parent="1" vertex="1">
          <mxGeometry x="20" y="244" width="230" height="156" as="geometry" />
        </mxCell>
        <mxCell id="ykycnO4j1pN1IT8NL6aB-26" value="&amp;lt;&amp;lt;application&amp;gt;&amp;gt;&lt;br&gt;Web-сервер&amp;nbsp;&lt;span style=&quot;text-align: left; background-color: rgb(255, 255, 255);&quot;&gt;&lt;font style=&quot;font-size: 11px;&quot; face=&quot;Helvetica&quot;&gt;Apache HTTP Server&lt;/font&gt;&lt;/span&gt;" style="rounded=0;whiteSpace=wrap;html=1;" parent="1" vertex="1">
          <mxGeometry x="55" y="280" width="120" height="50" as="geometry" />
        </mxCell>
        <mxCell id="ykycnO4j1pN1IT8NL6aB-27" style="edgeStyle=orthogonalEdgeStyle;rounded=0;orthogonalLoop=1;jettySize=auto;html=1;entryX=1;entryY=0.5;entryDx=0;entryDy=0;exitX=1;exitY=0.5;exitDx=0;exitDy=0;dashed=1;endArrow=open;endFill=0;" parent="1" source="ykycnO4j1pN1IT8NL6aB-28" target="ykycnO4j1pN1IT8NL6aB-26" edge="1">
          <mxGeometry relative="1" as="geometry" />
        </mxCell>
        <mxCell id="ykycnO4j1pN1IT8NL6aB-28" value="&amp;lt;&amp;lt;Python scripts&amp;gt;&amp;gt;&lt;br&gt;Библиотека сервисов ДШ" style="rounded=0;whiteSpace=wrap;html=1;" parent="1" vertex="1">
          <mxGeometry x="50" y="336" width="160" height="50" as="geometry" />
        </mxCell>
        <mxCell id="ykycnO4j1pN1IT8NL6aB-29" style="edgeStyle=orthogonalEdgeStyle;rounded=0;orthogonalLoop=1;jettySize=auto;html=1;entryX=0.471;entryY=1;entryDx=0;entryDy=0;endArrow=none;endFill=0;entryPerimeter=0;" parent="1" source="ykycnO4j1pN1IT8NL6aB-20" target="ykycnO4j1pN1IT8NL6aB-24" edge="1">
          <mxGeometry relative="1" as="geometry" />
        </mxCell>
        <mxCell id="ykycnO4j1pN1IT8NL6aB-30" style="edgeStyle=orthogonalEdgeStyle;rounded=0;orthogonalLoop=1;jettySize=auto;html=1;endArrow=none;endFill=0;" parent="1" source="ykycnO4j1pN1IT8NL6aB-31" target="ykycnO4j1pN1IT8NL6aB-24" edge="1">
          <mxGeometry relative="1" as="geometry">
            <Array as="points">
              <mxPoint x="40" y="680" />
            </Array>
          </mxGeometry>
        </mxCell>
        <mxCell id="ykycnO4j1pN1IT8NL6aB-31" value="&amp;lt;&amp;lt;device&amp;gt;&amp;gt; Сервер БД" style="verticalAlign=top;align=left;spacingTop=8;spacingLeft=2;spacingRight=12;shape=cube;size=10;direction=south;fontStyle=4;html=1;whiteSpace=wrap;" parent="1" vertex="1">
          <mxGeometry x="-540" y="530" width="333" height="280" as="geometry" />
        </mxCell>
        <mxCell id="ykycnO4j1pN1IT8NL6aB-32" value="&amp;lt;&amp;lt;OS&amp;gt;&amp;gt; Linux" style="verticalAlign=top;align=left;spacingTop=8;spacingLeft=2;spacingRight=12;shape=cube;size=10;direction=south;fontStyle=4;html=1;whiteSpace=wrap;" parent="1" vertex="1">
          <mxGeometry x="-510" y="577" width="277" height="143" as="geometry" />
        </mxCell>
        <mxCell id="ykycnO4j1pN1IT8NL6aB-33" value="&amp;lt;&amp;lt;DataBasee system&amp;gt;&amp;gt; СУБД MySQL" style="verticalAlign=top;align=left;spacingTop=8;spacingLeft=2;spacingRight=12;shape=cube;size=10;direction=south;fontStyle=4;html=1;whiteSpace=wrap;" parent="1" vertex="1">
          <mxGeometry x="-500" y="610" width="229.5" height="90" as="geometry" />
        </mxCell>
        <mxCell id="ykycnO4j1pN1IT8NL6aB-34" value="&amp;lt;&amp;lt;artifact&amp;gt;&amp;gt;&lt;br&gt;База данных" style="rounded=0;whiteSpace=wrap;html=1;" parent="1" vertex="1">
          <mxGeometry x="-490" y="650" width="100" height="40" as="geometry" />
        </mxCell>
        <mxCell id="ykycnO4j1pN1IT8NL6aB-35" value="" style="endArrow=none;html=1;rounded=0;endFill=0;exitX=0;exitY=0;exitDx=53;exitDy=5;exitPerimeter=0;" parent="1" source="ykycnO4j1pN1IT8NL6aB-21" edge="1">
          <mxGeometry width="50" height="50" relative="1" as="geometry">
            <mxPoint x="-130" y="334" as="sourcePoint" />
            <mxPoint x="-200" y="640" as="targetPoint" />
            <Array as="points">
              <mxPoint x="-130" y="380" />
              <mxPoint x="-130" y="640" />
            </Array>
          </mxGeometry>
        </mxCell>
        <mxCell id="ykycnO4j1pN1IT8NL6aB-36" value="&amp;lt;&amp;lt;protocol&amp;gt;&amp;gt;&lt;div&gt;TCP/IP&lt;/div&gt;" style="text;html=1;align=center;verticalAlign=middle;whiteSpace=wrap;rounded=0;" parent="1" vertex="1">
          <mxGeometry x="-200" y="425" width="60" height="50" as="geometry" />
        </mxCell>
        <mxCell id="ykycnO4j1pN1IT8NL6aB-37" value="&amp;lt;&amp;lt;ethernet&amp;gt;&amp;gt;&lt;div&gt;Локальная сеть&lt;/div&gt;" style="text;html=1;align=center;verticalAlign=middle;whiteSpace=wrap;rounded=0;" parent="1" vertex="1">
          <mxGeometry x="-85" y="564" width="95" height="30" as="geometry" />
        </mxCell>
        <mxCell id="ykycnO4j1pN1IT8NL6aB-38" value="" style="fontColor=#0066CC;verticalAlign=top;verticalLabelPosition=bottom;labelPosition=center;align=center;html=1;outlineConnect=0;fillColor=#CCCCCC;strokeColor=#6881B3;gradientColor=none;gradientDirection=north;strokeWidth=2;shape=mxgraph.networks.pc;" parent="1" vertex="1">
          <mxGeometry x="-550" y="298" width="100" height="70" as="geometry" />
        </mxCell>
        <mxCell id="ykycnO4j1pN1IT8NL6aB-39" value="" style="fontColor=#0066CC;verticalAlign=top;verticalLabelPosition=bottom;labelPosition=center;align=center;html=1;outlineConnect=0;fillColor=#CCCCCC;strokeColor=#6881B3;gradientColor=none;gradientDirection=north;strokeWidth=2;shape=mxgraph.networks.web_server;" parent="1" vertex="1">
          <mxGeometry x="270" y="350" width="70" height="75" as="geometry" />
        </mxCell>
        <mxCell id="ykycnO4j1pN1IT8NL6aB-40" value="" style="fontColor=#0066CC;verticalAlign=top;verticalLabelPosition=bottom;labelPosition=center;align=center;html=1;outlineConnect=0;fillColor=#CCCCCC;strokeColor=#6881B3;gradientColor=none;gradientDirection=north;strokeWidth=2;shape=mxgraph.networks.server_storage;" parent="1" vertex="1">
          <mxGeometry x="-520" y="730" width="65" height="70" as="geometry" />
        </mxCell>
      </root>
    </mxGraphModel>
  </diagram>
</mxfile>
